<?xml version="1.0" encoding="UTF-8" standalone="no"?>
<!-- Created with Inkscape (http://www.inkscape.org/) -->

<svg
   xmlns:ns0="http://www.iki.fi/pav/software/textext/"
   xmlns:dc="http://purl.org/dc/elements/1.1/"
   xmlns:cc="http://creativecommons.org/ns#"
   xmlns:rdf="http://www.w3.org/1999/02/22-rdf-syntax-ns#"
   xmlns:svg="http://www.w3.org/2000/svg"
   xmlns="http://www.w3.org/2000/svg"
   xmlns:sodipodi="http://sodipodi.sourceforge.net/DTD/sodipodi-0.dtd"
   xmlns:inkscape="http://www.inkscape.org/namespaces/inkscape"
   width="210mm"
   height="297mm"
   viewBox="0 0 793.7008056641 1122.51965332"
   version="1.1"
   id="svg1406"
   inkscape:version="0.92.3 (2405546, 2018-03-11)"
   sodipodi:docname="slopeEqn.svg">
  <sodipodi:namedview
     pagecolor="#ffffff"
     bordercolor="#666666"
     borderopacity="1"
     objecttolerance="10"
     gridtolerance="10"
     guidetolerance="10"
     inkscape:pageopacity="0"
     inkscape:pageshadow="2"
     inkscape:window-width="1920"
     inkscape:window-height="1056"
     id="namedview1408"
     showgrid="true"
     inkscape:snap-text-baseline="true"
     inkscape:zoom="2.7437401"
     inkscape:cx="313.67049"
     inkscape:cy="1033.0609"
     inkscape:window-x="0"
     inkscape:window-y="0"
     inkscape:window-maximized="1"
     inkscape:current-layer="svg1406">
    <inkscape:grid
       type="xygrid"
       id="grid1957" />
  </sodipodi:namedview>
  <metadata
     id="metadata1412">
    <rdf:RDF>
      <cc:Work
         rdf:about="">
        <dc:format>image/svg+xml</dc:format>
        <dc:type
           rdf:resource="http://purl.org/dc/dcmitype/StillImage" />
        <dc:title></dc:title>
      </cc:Work>
    </rdf:RDF>
  </metadata>
  <defs
     id="defs1410" />
  <g
     transform="matrix(0.739645,0,0,-0.739645,135.05916,422.77854)"
     ns0:preamble="/home/fernando/.config/inkscape/extensions/textextLib/basicLatexPackages.tex"
     ns0:text="$\\displaystyle\\frac{dy}{dx}=f(x,y)$"
     word-spacing="normal"
     letter-spacing="normal"
     font-size-adjust="none"
     font-stretch="normal"
     font-weight="normal"
     font-variant="normal"
     font-style="normal"
     stroke-miterlimit="10.433"
     xml:space="preserve"
     id="g905"
     inkscape:export-xdpi="725.62463"
     inkscape:export-ydpi="725.62463"
     style="font-style:normal;font-variant:normal;font-weight:normal;font-stretch:normal;letter-spacing:normal;word-spacing:normal;text-anchor:start;fill:none;fill-opacity:1;fill-rule:evenodd;stroke:#000000;stroke-linecap:butt;stroke-linejoin:miter;stroke-miterlimit:10.43299961;stroke-dasharray:none;stroke-dashoffset:0;stroke-opacity:1">
<path
   id="path879"
   style="fill:#000000;stroke-width:0"
   d="m 230,487.07 v 0 0 0 0 0 0.01 0 0 0.01 0 0 l -0.01,0.01 v 0 0.01 0 0.01 h -0.01 v 0.01 0 l -0.01,0.01 v 0 0 l -0.01,0.01 v 0 0 h -0.01 v 0 0.01 0 h -0.01 v 0 h -0.01 v 0 0.01 h -0.01 v 0 h -0.01 v 0 h -0.01 v 0 h -0.01 v 0 h -0.01 v 0 h -0.01 c -0.15,0 -1.1,-0.09 -1.27,-0.1 -0.08,-0.02 -0.14,-0.06 -0.14,-0.19 0,-0.12 0.09,-0.12 0.24,-0.12 0.48,0 0.5,-0.07 0.5,-0.17 l -0.03,-0.2 -0.6,-2.35 c -0.18,0.36 -0.47,0.63 -0.91,0.63 -1.17,0 -2.41,-1.46 -2.41,-2.91 0,-0.93 0.55,-1.59 1.33,-1.59 l 0.02,0.22 c -0.5,0 -0.64,0.55 -0.64,0.93 0,0.5 0.32,1.72 0.55,2.18 0.31,0.58 0.76,0.95 1.16,0.95 0.64,0 0.78,-0.81 0.78,-0.87 0,-0.06 -0.02,-0.12 -0.03,-0.17 l -0.49,-1.95 c -0.05,-0.18 -0.05,-0.2 -0.2,-0.36 -0.44,-0.55 -0.85,-0.71 -1.13,-0.71 l -0.02,-0.22 c 0.2,0 0.7,0.04 1.3,0.75 0.08,-0.42 0.42,-0.75 0.9,-0.75 0.35,0 0.58,0.23 0.74,0.55 0.17,0.36 0.3,0.96 0.3,0.98 0,0.1 -0.09,0.1 -0.12,0.1 -0.1,0 -0.11,-0.04 -0.14,-0.18 -0.17,-0.64 -0.35,-1.23 -0.76,-1.23 -0.27,0 -0.3,0.26 -0.3,0.46 0,0.23 0.02,0.3 0.06,0.47 z"
   inkscape:connector-curvature="0" />
<path
   id="path881"
   style="fill:#000000;stroke-width:0"
   d="m 234.89,484.07 v 0 0.01 0 0.01 l 0.01,0.01 v 0.01 0.01 0.01 l 0.01,0.01 v 0.01 0.01 0.01 0 l 0.01,0.01 v 0.01 0 0.01 0.01 0 0.01 0 0.01 0.01 l 0.01,0.01 v 0.01 0.01 0 0.01 0.01 0 c 0,0.18 -0.14,0.27 -0.29,0.27 -0.1,0 -0.26,-0.06 -0.35,-0.21 -0.02,-0.05 -0.1,-0.36 -0.14,-0.53 -0.07,-0.26 -0.14,-0.53 -0.2,-0.8 l -0.45,-1.79 c -0.04,-0.15 -0.47,-0.84 -1.13,-0.84 -0.51,0 -0.61,0.44 -0.61,0.8 0,0.46 0.16,1.08 0.5,1.95 0.16,0.41 0.2,0.52 0.2,0.72 0,0.44 -0.32,0.81 -0.81,0.81 -0.95,0 -1.32,-1.44 -1.32,-1.53 0,-0.1 0.1,-0.1 0.12,-0.1 0.1,0 0.11,0.02 0.16,0.18 0.27,0.93 0.67,1.23 1.01,1.23 0.08,0 0.24,0 0.24,-0.32 0,-0.24 -0.1,-0.5 -0.16,-0.69 -0.4,-1.05 -0.58,-1.62 -0.58,-2.09 0,-0.88 0.62,-1.18 1.21,-1.18 0.39,0 0.73,0.17 1.01,0.45 -0.13,-0.52 -0.25,-1.01 -0.65,-1.53 -0.26,-0.34 -0.64,-0.63 -1.09,-0.63 -0.14,0 -0.59,0.03 -0.76,0.42 0.16,0 0.29,0 0.43,0.12 0.1,0.09 0.2,0.22 0.2,0.41 0,0.3 -0.27,0.34 -0.37,0.34 -0.23,0 -0.56,-0.15 -0.56,-0.64 0,-0.5 0.44,-0.87 1.06,-0.87 1.02,0 2.05,0.91 2.33,2.03 z"
   inkscape:connector-curvature="0" />
<line
   id="line883"
   y2="476.03"
   x2="235.50999"
   y1="476.03"
   x1="224.63"
   style="stroke-width:0.398" />
<path
   id="path885"
   style="fill:#000000;stroke-width:0"
   d="m 229.77,473.49 v 0 0 0 0.01 0 0 0 0.01 0 0.01 0 0.01 0 0 l -0.01,0.01 v 0 0.01 h -0.01 v 0.01 0 l -0.01,0.01 v 0 0 h -0.01 v 0.01 0 0 h -0.01 v 0 0.01 h -0.01 v 0 h -0.01 v 0 0 h -0.01 v 0.01 h -0.01 v 0 h -0.01 v 0 h -0.01 v 0 h -0.01 -0.01 c -0.15,0 -1.09,-0.09 -1.26,-0.11 -0.08,-0.01 -0.14,-0.06 -0.14,-0.19 0,-0.12 0.09,-0.12 0.24,-0.12 0.48,0 0.5,-0.07 0.5,-0.17 l -0.03,-0.19 -0.6,-2.36 c -0.18,0.37 -0.47,0.64 -0.92,0.64 -1.17,0 -2.4,-1.46 -2.4,-2.91 0,-0.94 0.54,-1.59 1.32,-1.59 l 0.02,0.22 c -0.49,0 -0.63,0.54 -0.63,0.93 0,0.5 0.31,1.72 0.54,2.17 0.31,0.59 0.76,0.96 1.16,0.96 0.65,0 0.79,-0.82 0.79,-0.88 0,-0.06 -0.02,-0.11 -0.03,-0.17 l -0.5,-1.94 c -0.05,-0.18 -0.05,-0.2 -0.2,-0.37 -0.44,-0.55 -0.85,-0.7 -1.13,-0.7 l -0.02,-0.22 c 0.2,0 0.7,0.04 1.3,0.74 0.08,-0.42 0.43,-0.74 0.91,-0.74 0.35,0 0.57,0.23 0.73,0.54 0.17,0.36 0.3,0.97 0.3,0.99 0,0.1 -0.09,0.1 -0.12,0.1 -0.09,0 -0.1,-0.04 -0.13,-0.18 -0.18,-0.65 -0.35,-1.23 -0.76,-1.23 -0.27,0 -0.3,0.25 -0.3,0.45 0,0.24 0.02,0.31 0.06,0.48 z"
   inkscape:connector-curvature="0" />
<path
   id="path887"
   style="fill:#000000;stroke-width:0"
   d="m 233.14,469.71 0.01,0.02 0.01,0.03 0.01,0.03 0.01,0.04 0.01,0.04 0.01,0.04 0.01,0.04 0.02,0.05 0.01,0.04 0.02,0.05 0.02,0.05 0.02,0.05 0.02,0.05 0.02,0.05 0.03,0.05 0.03,0.05 0.03,0.05 0.03,0.04 0.03,0.05 0.04,0.05 0.04,0.04 0.03,0.04 0.05,0.04 0.04,0.03 0.05,0.03 0.05,0.03 0.02,0.01 0.03,0.02 0.02,0.01 0.03,0.01 0.03,0.01 0.03,0.01 h 0.03 l 0.03,0.01 h 0.03 l 0.03,0.01 h 0.03 0.03 c 0.05,0 0.29,0 0.5,-0.13 -0.28,-0.05 -0.48,-0.3 -0.48,-0.54 0,-0.16 0.11,-0.35 0.38,-0.35 0.22,0 0.54,0.18 0.54,0.58 0,0.52 -0.59,0.66 -0.93,0.66 -0.58,0 -0.93,-0.53 -1.05,-0.76 -0.24,0.66 -0.78,0.76 -1.07,0.76 -1.04,0 -1.61,-1.28 -1.61,-1.53 0,-0.1 0.1,-0.1 0.12,-0.1 0.08,0 0.11,0.02 0.13,0.11 0.34,1.05 1,1.3 1.34,1.3 0.19,0 0.54,-0.09 0.54,-0.67 0,-0.31 -0.17,-0.97 -0.54,-2.36 -0.16,-0.62 -0.51,-1.03 -0.95,-1.03 -0.06,0 -0.29,0 -0.5,0.12 0.25,0.05 0.47,0.26 0.47,0.54 0,0.27 -0.22,0.35 -0.37,0.35 -0.3,0 -0.55,-0.26 -0.55,-0.58 0,-0.45 0.5,-0.65 0.94,-0.65 0.66,0 1.02,0.69 1.05,0.75 0.12,-0.37 0.48,-0.75 1.07,-0.75 1.03,0 1.6,1.28 1.6,1.53 0,0.1 -0.09,0.1 -0.12,0.1 -0.09,0 -0.11,-0.04 -0.13,-0.11 -0.33,-1.07 -1.01,-1.3 -1.33,-1.3 -0.39,0 -0.54,0.31 -0.54,0.65 0,0.22 0.06,0.44 0.16,0.88 z"
   inkscape:connector-curvature="0" />
<path
   id="path889"
   style="fill:#000000;stroke-width:0"
   d="m 246.32,476.79 h 0.03 0.03 0.03 0.01 0.02 0.01 0.02 l 0.01,0.01 h 0.01 0.02 0.01 l 0.01,0.01 h 0.02 l 0.01,0.01 h 0.01 l 0.01,0.01 0.01,0.01 h 0.01 l 0.01,0.01 0.01,0.01 0.01,0.01 v 0.01 h 0.01 v 0.01 0 0.01 l 0.01,0.01 v 0 0.01 0.01 l 0.01,0.01 v 0 0.01 0.01 0.01 0.01 0.01 c 0,0.2 -0.19,0.2 -0.33,0.2 h -5.97 c -0.14,0 -0.33,0 -0.33,-0.2 0,-0.2 0.19,-0.2 0.34,-0.2 z"
   inkscape:connector-curvature="0" />
<path
   id="path891"
   style="fill:#000000;stroke-width:0"
   d="m 246.33,474.86 h 0.01 0.02 0.03 0.02 0.02 0.01 l 0.02,0.01 h 0.01 0.01 0.02 0.01 l 0.01,0.01 h 0.02 l 0.01,0.01 h 0.01 l 0.01,0.01 h 0.01 l 0.01,0.01 0.01,0.01 0.01,0.01 h 0.01 v 0.01 h 0.01 v 0.01 l 0.01,0.01 v 0 0.01 0 l 0.01,0.01 v 0.01 0 0.01 l 0.01,0.01 v 0.01 0 0.01 0.01 0.01 0.01 c 0,0.2 -0.19,0.2 -0.34,0.2 h -5.95 c -0.15,0 -0.34,0 -0.34,-0.2 0,-0.2 0.19,-0.2 0.33,-0.2 z"
   inkscape:connector-curvature="0" />
<path
   id="path893"
   style="fill:#000000;stroke-width:0"
   d="m 253.65,477.51 h 0.85 c 0.2,0 0.3,0 0.3,0.2 0,0.11 -0.1,0.11 -0.27,0.11 h -0.82 l 0.2,1.13 c 0.05,0.21 0.18,0.92 0.24,1.04 0.09,0.19 0.26,0.34 0.47,0.34 0.04,0 0.3,0 0.49,-0.18 -0.44,-0.04 -0.54,-0.39 -0.54,-0.54 0,-0.23 0.18,-0.35 0.37,-0.35 0.26,0 0.55,0.22 0.55,0.6 0,0.46 -0.46,0.68 -0.87,0.68 -0.34,0 -0.96,-0.18 -1.26,-1.16 -0.06,-0.21 -0.09,-0.31 -0.33,-1.56 h -0.69 c -0.19,0 -0.3,0 -0.3,-0.19 0,-0.12 0.09,-0.12 0.28,-0.12 h 0.66 l -0.75,-3.92 c -0.18,-0.96 -0.35,-1.87 -0.87,-1.87 -0.04,0 -0.29,0 -0.48,0.18 0.46,0.03 0.55,0.39 0.55,0.54 0,0.23 -0.18,0.35 -0.37,0.35 -0.26,0 -0.55,-0.22 -0.55,-0.6 0,-0.45 0.44,-0.69 0.85,-0.69 0.55,0 0.95,0.59 1.13,0.97 0.32,0.62 0.55,1.83 0.56,1.89 z"
   inkscape:connector-curvature="0" />
<path
   id="path895"
   style="fill:#000000;stroke-width:0"
   d="m 259.24,471.16 v 0 0.01 0 0 0.01 h -0.01 v 0 0.01 0 0 0.01 h -0.01 v 0.01 0 l -0.01,0.01 v 0.01 h -0.01 v 0.01 h -0.01 v 0.01 0 l -0.01,0.01 v 0 h -0.01 v 0.01 0 l -0.01,0.01 v 0 l -0.01,0.01 v 0 l -0.01,0.01 -0.01,0.01 v 0 l -0.01,0.01 v 0 l -0.01,0.01 -0.01,0.01 v 0 l -0.01,0.01 -0.01,0.01 -0.01,0.01 v 0 c -1.25,1.26 -1.57,3.13 -1.57,4.65 0,1.73 0.38,3.46 1.61,4.7 0.13,0.12 0.13,0.14 0.13,0.17 0,0.07 -0.04,0.1 -0.1,0.1 -0.1,0 -1,-0.67 -1.59,-1.94 -0.51,-1.09 -0.63,-2.19 -0.63,-3.03 0,-0.77 0.11,-1.97 0.66,-3.1 0.6,-1.22 1.46,-1.86 1.56,-1.86 0.06,0 0.1,0.03 0.1,0.1 z"
   inkscape:connector-curvature="0" />
<path
   id="path897"
   style="fill:#000000;stroke-width:0"
   d="m 263.14,476.54 0.01,0.03 v 0.03 l 0.01,0.03 0.01,0.03 0.01,0.04 0.01,0.04 0.02,0.05 0.01,0.04 0.02,0.05 0.02,0.05 0.01,0.04 0.03,0.05 0.02,0.05 0.02,0.05 0.03,0.05 0.02,0.05 0.03,0.05 0.04,0.05 0.03,0.04 0.03,0.05 0.04,0.04 0.04,0.04 0.04,0.04 0.05,0.04 0.04,0.03 0.05,0.03 0.03,0.01 0.02,0.01 0.03,0.01 0.03,0.01 0.03,0.01 0.02,0.01 0.03,0.01 H 264 l 0.03,0.01 h 0.03 0.04 0.03 c 0.05,0 0.29,0 0.5,-0.13 -0.28,-0.05 -0.48,-0.29 -0.48,-0.53 0,-0.16 0.11,-0.35 0.38,-0.35 0.22,0 0.54,0.18 0.54,0.57 0,0.52 -0.59,0.66 -0.93,0.66 -0.58,0 -0.93,-0.53 -1.05,-0.75 -0.25,0.65 -0.79,0.75 -1.08,0.75 -1.03,0 -1.6,-1.28 -1.6,-1.53 0,-0.1 0.1,-0.1 0.12,-0.1 0.08,0 0.11,0.02 0.13,0.11 0.34,1.05 0.99,1.3 1.33,1.3 0.19,0 0.54,-0.09 0.54,-0.66 0,-0.31 -0.17,-0.98 -0.54,-2.37 -0.16,-0.61 -0.51,-1.03 -0.94,-1.03 -0.06,0 -0.29,0 -0.5,0.13 0.25,0.05 0.47,0.26 0.47,0.54 0,0.26 -0.22,0.34 -0.37,0.34 -0.3,0 -0.55,-0.26 -0.55,-0.57 0,-0.46 0.5,-0.66 0.94,-0.66 0.66,0 1.01,0.7 1.04,0.76 0.12,-0.37 0.48,-0.76 1.08,-0.76 1.03,0 1.6,1.28 1.6,1.53 0,0.1 -0.09,0.1 -0.12,0.1 -0.09,0 -0.11,-0.04 -0.13,-0.11 -0.33,-1.06 -1.01,-1.3 -1.33,-1.3 -0.39,0 -0.55,0.32 -0.55,0.65 0,0.22 0.06,0.44 0.17,0.88 z"
   inkscape:connector-curvature="0" />
<path
   id="path899"
   style="fill:#000000;stroke-width:0"
   d="m 267.53,473.55 v 0.06 0.06 l -0.01,0.06 v 0.05 l -0.01,0.06 -0.01,0.05 -0.01,0.05 -0.01,0.05 -0.01,0.05 -0.01,0.04 -0.02,0.05 -0.01,0.04 -0.02,0.04 -0.02,0.04 -0.01,0.03 -0.03,0.04 -0.02,0.03 -0.02,0.03 -0.02,0.03 -0.03,0.03 -0.02,0.02 -0.03,0.02 -0.03,0.02 -0.03,0.02 -0.03,0.02 -0.03,0.01 -0.03,0.02 -0.03,0.01 H 267 l -0.04,0.01 h -0.03 -0.04 c -0.33,0 -0.53,-0.24 -0.53,-0.52 0,-0.27 0.2,-0.53 0.53,-0.53 0.12,0 0.25,0.04 0.35,0.13 0.03,0.02 0.04,0.03 0.05,0.03 0.01,0 0.02,-0.01 0.02,-0.15 0,-0.73 -0.35,-1.33 -0.68,-1.66 -0.11,-0.11 -0.11,-0.13 -0.11,-0.16 0,-0.07 0.05,-0.11 0.1,-0.11 0.11,0 0.91,0.77 0.91,1.93 z"
   inkscape:connector-curvature="0" />
<path
   id="path901"
   style="fill:#000000;stroke-width:0"
   d="m 274.78,477.33 v 0 0.01 h 0.01 v 0.01 0.01 0.01 l 0.01,0.01 v 0.01 0.01 0.01 l 0.01,0.01 v 0.01 0 0.01 0.01 0 l 0.01,0.01 v 0.01 0 0.01 0 0.01 0.01 0.01 0.01 0.01 0 0.01 0.01 0 c 0,0.18 -0.14,0.27 -0.29,0.27 -0.1,0 -0.26,-0.06 -0.35,-0.21 -0.02,-0.05 -0.1,-0.35 -0.14,-0.53 -0.07,-0.26 -0.14,-0.53 -0.2,-0.8 l -0.45,-1.79 c -0.03,-0.14 -0.46,-0.84 -1.12,-0.84 -0.51,0 -0.62,0.44 -0.62,0.8 0,0.46 0.17,1.08 0.51,1.95 0.16,0.41 0.2,0.52 0.2,0.72 0,0.44 -0.32,0.81 -0.82,0.81 -0.95,0 -1.32,-1.44 -1.32,-1.53 0,-0.1 0.1,-0.1 0.12,-0.1 0.1,0 0.11,0.02 0.16,0.18 0.27,0.93 0.67,1.23 1.01,1.23 0.08,0 0.25,0 0.25,-0.32 0,-0.24 -0.1,-0.5 -0.17,-0.69 -0.4,-1.05 -0.58,-1.62 -0.58,-2.09 0,-0.88 0.63,-1.18 1.22,-1.18 0.39,0 0.73,0.17 1.01,0.45 -0.13,-0.52 -0.25,-1.01 -0.65,-1.53 -0.26,-0.34 -0.64,-0.63 -1.1,-0.63 -0.14,0 -0.59,0.03 -0.76,0.42 0.16,0 0.29,0 0.43,0.12 0.1,0.09 0.2,0.22 0.2,0.41 0,0.3 -0.27,0.34 -0.37,0.34 -0.23,0 -0.56,-0.15 -0.56,-0.64 0,-0.5 0.44,-0.87 1.06,-0.87 1.03,0 2.06,0.91 2.33,2.03 z"
   inkscape:connector-curvature="0" />
<path
   id="path903"
   style="fill:#000000;stroke-width:0"
   d="m 278.06,476.02 v 0.08 l -0.01,0.07 v 0.08 0.08 l -0.01,0.17 -0.01,0.18 -0.02,0.18 -0.02,0.19 -0.02,0.19 -0.04,0.2 -0.04,0.21 -0.04,0.2 -0.06,0.21 -0.06,0.21 -0.07,0.22 -0.08,0.21 -0.04,0.11 -0.04,0.1 -0.05,0.11 -0.05,0.1 c -0.6,1.23 -1.46,1.87 -1.56,1.87 -0.06,0 -0.1,-0.04 -0.1,-0.1 0,-0.03 0,-0.05 0.19,-0.23 0.98,-0.98 1.55,-2.56 1.55,-4.64 0,-1.69 -0.37,-3.44 -1.61,-4.69 -0.13,-0.12 -0.13,-0.14 -0.13,-0.17 0,-0.06 0.04,-0.1 0.1,-0.1 0.1,0 1,0.67 1.59,1.93 0.51,1.1 0.63,2.2 0.63,3.03 z"
   inkscape:connector-curvature="0" />
</g></svg>
